<svg width="96" height="96" xmlns="http://www.w3.org/2000/svg" xmlns:xlink="http://www.w3.org/1999/xlink" xml:space="preserve" overflow="hidden"><g transform="translate(-450 -389)"><path d="M534 474.06C532.087 473.299 530.058 472.87 528 472.79L528 472.79C525.942 472.87 523.913 473.299 522 474.06 520.726 474.587 519.375 474.905 518 475L518 475C516.625 474.905 515.274 474.587 514 474.06 512.087 473.299 510.058 472.87 508 472.79L508 472.79C505.942 472.87 503.913 473.299 502 474.06 500.726 474.587 499.375 474.905 498 475 496.625 474.905 495.274 474.587 494 474.06 492.087 473.299 490.058 472.87 488 472.79L488 472.79C485.942 472.87 483.913 473.299 482 474.06 480.726 474.587 479.375 474.905 478 475 476.625 474.905 475.274 474.587 474 474.06 472.087 473.299 470.058 472.87 468 472.79L468 472.79C465.942 472.87 463.913 473.299 462 474.06 460.726 474.587 459.375 474.905 458 475L458 481C460.058 480.92 462.087 480.491 464 479.73 465.27 479.182 466.621 478.845 468 478.73 469.379 478.845 470.73 479.182 472 479.73 473.913 480.491 475.942 480.92 478 481L478 481C480.058 480.92 482.087 480.491 484 479.73 485.27 479.182 486.621 478.845 488 478.73 489.375 478.825 490.726 479.143 492 479.67 493.908 480.456 495.938 480.906 498 481 500.058 480.92 502.087 480.491 504 479.73 505.27 479.182 506.621 478.845 508 478.73 509.379 478.845 510.73 479.182 512 479.73 513.913 480.491 515.942 480.92 518 481L518 481C520.058 480.92 522.087 480.491 524 479.73 525.27 479.182 526.621 478.845 528 478.73 529.375 478.825 530.726 479.143 532 479.67 533.908 480.456 535.938 480.906 538 481L538 475C536.625 474.905 535.274 474.587 534 474.06Z"/><path d="M499.31 412.48C499.045 413.925 500.001 415.311 501.446 415.576 502.553 415.78 503.668 415.264 504.23 414.29L504.23 414.29C506.48 425.02 505.61 435.99 504.31 443.89L504.31 443.89C498.746 444.169 493.274 445.418 488.14 447.58L488.14 447.58C488.14 447.58 487.48 447.58 486.41 447.58L486.41 447.58C484.63 442.056 483.848 436.258 484.1 430.46L484.1 430.46C484.637 431.148 485.63 431.27 486.318 430.732 486.762 430.385 486.987 429.828 486.91 429.27 486.901 429.178 486.88 429.087 486.85 429L486.85 429C488.91 431.23 489.44 433.45 490.12 434.49 490.235 434.659 490.465 434.703 490.634 434.588 490.704 434.541 490.755 434.471 490.78 434.39 491.537 432.013 491.328 429.434 490.2 427.21 489.528 426.103 488.452 425.3 487.2 424.97L487.2 424.97C490.22 425.531 493.128 426.582 495.81 428.08 495.996 428.188 496.235 428.124 496.343 427.938 496.41 427.821 496.413 427.679 496.35 427.56 495.41 425.63 493.21 421.87 490.21 421.23 487.21 420.59 484.66 423.41 483.91 424.23 483.884 424.258 483.839 424.26 483.811 424.233 483.794 424.217 483.786 424.193 483.79 424.17 484.532 422.134 483.722 419.858 481.86 418.75 480.04 417.69 476.54 418.5 474.59 419.1 474.38 419.148 474.249 419.358 474.298 419.568 474.331 419.713 474.445 419.827 474.59 419.86 476.681 420.383 478.671 421.248 480.48 422.42L480.48 422.42C478.549 421.383 476.185 421.604 474.48 422.98 472.88 424.21 471.74 427.06 471.16 428.82 471.079 429.019 471.174 429.247 471.374 429.328 471.521 429.388 471.689 429.354 471.8 429.24 473.507 427.688 475.51 426.497 477.69 425.74L477.69 425.74C476.767 426.397 476.069 427.322 475.69 428.39 474.98 430.2 475.43 432.8 475.85 434.39 475.91 434.603 476.131 434.726 476.344 434.667 476.478 434.629 476.582 434.524 476.62 434.39 477.108 432.576 477.951 430.876 479.1 429.39L479.1 429.39C479.023 429.584 478.989 429.792 479 430 479.118 430.865 479.915 431.47 480.779 431.352 480.783 431.351 480.786 431.35 480.79 431.35 481.137 431.297 481.456 431.132 481.7 430.88L481.7 430.88C481.488 436.516 481.756 442.159 482.5 447.75L482.5 447.75C477 448.16 469.07 449.62 467 454.35L468 454.27C470.058 454.35 472.087 454.779 474 455.54 475.272 456.072 476.624 456.39 478 456.48L478 456.48C479.376 456.39 480.728 456.072 482 455.54 483.913 454.779 485.942 454.35 488 454.27L488 454.27C490.058 454.35 492.087 454.779 494 455.54 495.272 456.072 496.624 456.39 498 456.48L498 456.48C499.376 456.39 500.728 456.072 502 455.54 503.913 454.779 505.942 454.35 508 454.27L508 454.27C510.058 454.35 512.087 454.779 514 455.54 515.272 456.072 516.624 456.39 518 456.48L518 456.48C519.376 456.39 520.728 456.072 522 455.54 523.849 454.812 525.805 454.389 527.79 454.29L527.79 454.29C523.599 448.992 517.598 445.431 510.94 444.29L510.94 444.29C510.85 438.2 510.45 424.59 508.27 414.36L508.27 414.36C508.834 414.807 509.556 415.006 510.27 414.91 511.096 414.768 511.809 414.251 512.2 413.51 512.581 412.86 512.644 412.072 512.37 411.37L512.37 411.37C514.655 413.595 516.474 416.254 517.72 419.19 517.867 419.529 518.262 419.685 518.602 419.537 518.821 419.442 518.973 419.237 519 419 519.31 416.2 519.46 411.78 517.84 408.94 516.959 407.323 515.624 405.998 514 405.13 513.95 405.13 514 405.04 514 405.05 517.733 405.812 521.279 407.308 524.43 409.45 524.722 409.678 525.143 409.626 525.37 409.334 525.535 409.124 525.559 408.835 525.43 408.6 524.05 405.81 521.48 401.34 518.53 399.67 514.36 397.31 510.71 398.53 508.02 400.46 508.02 400.46 508.02 400.46 508.02 400.46 510.837 397.949 514.064 395.94 517.56 394.52 517.901 394.39 518.072 394.009 517.942 393.668 517.857 393.445 517.657 393.284 517.42 393.25 514 392.69 508 392.15 505.25 394.35 501.19 397.56 502.49 402 503.38 404 503.399 404.028 503.393 404.066 503.365 404.085 503.337 404.104 503.299 404.098 503.28 404.07 501.65 402.41 497.1 398.5 491.94 400.38 487.11 402.14 484.34 408.91 483.22 412.38 483.114 412.729 483.31 413.098 483.659 413.204 483.849 413.262 484.055 413.231 484.22 413.12 488.301 410.018 492.856 407.597 497.71 405.95L497.71 406.01C495.712 406.849 494.109 408.419 493.23 410.4 491.23 415.15 492.94 420.14 493.94 422.4 494.083 422.723 494.461 422.869 494.785 422.725 494.93 422.661 495.046 422.545 495.11 422.4 495.98 420.49 496.38 416.69 499.26 412.53Z"/><path d="M534 462.06C532.087 461.299 530.058 460.87 528 460.79L528 460.79C525.942 460.87 523.913 461.299 522 462.06 520.726 462.587 519.375 462.905 518 463L518 463C516.625 462.905 515.274 462.587 514 462.06 512.087 461.299 510.058 460.87 508 460.79L508 460.79C505.942 460.87 503.913 461.299 502 462.06 500.726 462.587 499.375 462.905 498 463 496.625 462.905 495.274 462.587 494 462.06 492.087 461.299 490.058 460.87 488 460.79L488 460.79C485.942 460.87 483.913 461.299 482 462.06 480.726 462.587 479.375 462.905 478 463 476.625 462.905 475.274 462.587 474 462.06 472.087 461.299 470.058 460.87 468 460.79L468 460.79C465.942 460.87 463.913 461.299 462 462.06 460.726 462.587 459.375 462.905 458 463L458 469C460.058 468.92 462.087 468.491 464 467.73 465.27 467.182 466.621 466.845 468 466.73 469.379 466.845 470.73 467.182 472 467.73 473.913 468.491 475.942 468.92 478 469L478 469C480.058 468.92 482.087 468.491 484 467.73 485.27 467.182 486.621 466.845 488 466.73 489.375 466.825 490.726 467.143 492 467.67 493.908 468.456 495.938 468.906 498 469 500.058 468.92 502.087 468.491 504 467.73 505.27 467.182 506.621 466.845 508 466.73 509.379 466.845 510.73 467.182 512 467.73 513.913 468.491 515.942 468.92 518 469L518 469C520.058 468.92 522.087 468.491 524 467.73 525.27 467.182 526.621 466.845 528 466.73 529.375 466.825 530.726 467.143 532 467.67 533.908 468.456 535.938 468.906 538 469L538 463C536.625 462.905 535.274 462.587 534 462.06Z"/></g></svg>